<svg xmlns="http://www.w3.org/2000/svg" viewBox="0 0 240 140">
<defs><linearGradient id="g" x1="0" y1="0" x2="1" y2="1"><stop offset="0%" stop-color="#a9e8d6"/><stop offset="100%" stop-color="#1f9a80"/></linearGradient></defs><rect x="0" y="0" width="240" height="140" rx="4" fill="url(#g)"/>
<g fill="none" stroke="#eafaf6" stroke-width="3" stroke-linecap="round" stroke-linejoin="round">
<path d="M78 66 L112 40 L146 66"/>
<line x1="70" y1="66" x2="154" y2="66"/>
<line x1="82" y1="66" x2="82" y2="100"/>
<line x1="98" y1="66" x2="98" y2="100"/>
<line x1="114" y1="66" x2="114" y2="100"/>
<line x1="130" y1="66" x2="130" y2="100"/>
<line x1="70" y1="108" x2="154" y2="108"/>
<line x1="70" y1="100" x2="70" y2="108"/>
<line x1="146" y1="100" x2="146" y2="108"/>
<path d="M158 84 l16 -6 l16 6 v16 c0 10 -7 17 -16 20 c-9 -3 -16 -10 -16 -20 z"/>
<path d="M167 100 l5 5 l9 -11" stroke-width="2.4"/>
</g>
</svg>
